<svg width="93" height="25" viewBox="0 0 93 25" fill="none" xmlns="http://www.w3.org/2000/svg">
<path d="M32.5124 5.34224C31.8845 5.34224 31.3172 5.4524 30.8104 5.67272C30.3037 5.88202 29.8741 6.19597 29.5216 6.61458C29.1691 7.02217 28.8992 7.52339 28.7119 8.11825C28.5246 8.70209 28.431 9.36304 28.431 10.1011C28.431 11.0705 28.5797 11.9132 28.8772 12.6293C29.1856 13.3453 29.6373 13.8961 30.2321 14.2816C30.838 14.6672 31.5926 14.86 32.4959 14.86C33.0136 14.86 33.5038 14.8159 33.9665 14.7278C34.4292 14.6397 34.8808 14.5295 35.3215 14.3973V15.6862C34.8808 15.8514 34.4237 15.9726 33.95 16.0497C33.4873 16.1268 32.931 16.1654 32.2811 16.1654C31.0803 16.1654 30.0779 15.9175 29.2737 15.4218C28.4696 14.9261 27.8637 14.2211 27.4561 13.3067C27.0595 12.3924 26.8612 11.3184 26.8612 10.0846C26.8612 9.1923 26.9824 8.37712 27.2248 7.63906C27.4781 6.90099 27.8417 6.26207 28.3153 5.72229C28.8 5.18251 29.3949 4.76941 30.0999 4.483C30.8049 4.18557 31.6146 4.03686 32.5289 4.03686C33.1348 4.03686 33.7186 4.09744 34.2805 4.21862C34.8423 4.33979 35.3435 4.51054 35.7841 4.73086L35.1893 5.98667C34.8257 5.82143 34.4182 5.67272 33.9665 5.54053C33.5259 5.40834 33.0412 5.34224 32.5124 5.34224ZM45.3983 11.5552C45.3983 12.2933 45.2991 12.9487 45.1009 13.5215C44.9136 14.0834 44.6382 14.5625 44.2747 14.9591C43.9222 15.3557 43.487 15.6586 42.9693 15.8679C42.4626 16.0662 41.8952 16.1654 41.2673 16.1654C40.6835 16.1654 40.1437 16.0662 39.648 15.8679C39.1523 15.6586 38.7227 15.3557 38.3591 14.9591C37.9956 14.5625 37.7092 14.0834 37.4999 13.5215C37.3016 12.9487 37.2025 12.2933 37.2025 11.5552C37.2025 10.5748 37.3677 9.7486 37.6982 9.07663C38.0287 8.39364 38.5023 7.8759 39.1192 7.52339C39.7361 7.15986 40.4687 6.9781 41.3169 6.9781C42.1211 6.9781 42.8261 7.15986 43.432 7.52339C44.0488 7.8759 44.528 8.39364 44.8695 9.07663C45.222 9.7486 45.3983 10.5748 45.3983 11.5552ZM38.7061 11.5552C38.7061 12.2492 38.7943 12.8551 38.9705 13.3728C39.1578 13.8796 39.4442 14.2706 39.8298 14.546C40.2153 14.8214 40.7055 14.9591 41.3004 14.9591C41.8952 14.9591 42.3854 14.8214 42.771 14.546C43.1566 14.2706 43.4375 13.8796 43.6137 13.3728C43.801 12.8551 43.8946 12.2492 43.8946 11.5552C43.8946 10.8502 43.801 10.2498 43.6137 9.75411C43.4264 9.25839 43.14 8.87834 42.7545 8.61396C42.3799 8.33857 41.8897 8.20087 41.2839 8.20087C40.3806 8.20087 39.7251 8.4983 39.3175 9.09315C38.9099 9.68801 38.7061 10.5087 38.7061 11.5552ZM51.966 6.9781C53.0235 6.9781 53.8222 7.23698 54.362 7.75472C54.9017 8.26145 55.1716 9.08765 55.1716 10.2333V16.0001H53.7341V10.3324C53.7341 9.61641 53.5743 9.08214 53.2549 8.72963C52.9354 8.37712 52.4342 8.20087 51.7512 8.20087C50.7708 8.20087 50.0933 8.47626 49.7188 9.02706C49.3442 9.57785 49.157 10.371 49.157 11.4065V16.0001H47.7029V7.14334H48.876L49.0909 8.34958H49.1735C49.3718 8.04114 49.6141 7.78777 49.9005 7.58948C50.198 7.38018 50.5229 7.22596 50.8754 7.12682C51.2279 7.02767 51.5915 6.9781 51.966 6.9781ZM61.4699 16.1654C60.6878 16.1654 59.9883 16.0056 59.3714 15.6862C58.7655 15.3667 58.2863 14.871 57.9338 14.199C57.5923 13.5271 57.4216 12.6678 57.4216 11.6213C57.4216 10.5307 57.6033 9.64395 57.9669 8.96096C58.3304 8.27798 58.8206 7.77675 59.4375 7.45729C60.0654 7.13783 60.7759 6.9781 61.5691 6.9781C62.0207 6.9781 62.4559 7.02767 62.8745 7.12682C63.2931 7.21494 63.6346 7.3251 63.8989 7.45729L63.4528 8.66353C63.1884 8.56439 62.88 8.47076 62.5275 8.38263C62.1749 8.2945 61.8445 8.25044 61.536 8.25044C60.9412 8.25044 60.451 8.37712 60.0654 8.63049C59.6798 8.88385 59.3934 9.25839 59.2062 9.75411C59.0189 10.2498 58.9253 10.8667 58.9253 11.6048C58.9253 12.3098 59.0189 12.9102 59.2062 13.4059C59.3934 13.9016 59.6743 14.2761 60.0489 14.5295C60.4234 14.7829 60.8916 14.9095 61.4534 14.9095C61.9381 14.9095 62.3622 14.86 62.7257 14.7608C63.1003 14.6617 63.4418 14.5405 63.7502 14.3973V15.6862C63.4528 15.8404 63.1223 15.9561 62.7588 16.0332C62.4063 16.1213 61.9767 16.1654 61.4699 16.1654ZM67.3106 7.14334V16.0001H65.8565V7.14334H67.3106ZM66.6001 3.82205C66.8204 3.82205 67.0132 3.89916 67.1784 4.05338C67.3547 4.19659 67.4428 4.42792 67.4428 4.74738C67.4428 5.05583 67.3547 5.28716 67.1784 5.44138C67.0132 5.59561 66.8204 5.67272 66.6001 5.67272C66.3577 5.67272 66.1539 5.59561 65.9887 5.44138C65.8234 5.28716 65.7408 5.05583 65.7408 4.74738C65.7408 4.42792 65.8234 4.19659 65.9887 4.05338C66.1539 3.89916 66.3577 3.82205 66.6001 3.82205ZM74.2475 6.9781C74.4127 6.9781 74.589 6.98912 74.7763 7.01115C74.9746 7.02217 75.1453 7.0442 75.2885 7.07725L75.1067 8.41568C74.9635 8.38263 74.8038 8.35509 74.6276 8.33306C74.4623 8.31103 74.3026 8.30001 74.1484 8.30001C73.8069 8.30001 73.4819 8.37161 73.1735 8.51482C72.865 8.65803 72.5896 8.86182 72.3473 9.1262C72.1049 9.37957 71.9121 9.68801 71.7689 10.0515C71.6367 10.4151 71.5706 10.8227 71.5706 11.2743V16.0001H70.1165V7.14334H71.3063L71.4715 8.76268H71.5376C71.7249 8.4322 71.9507 8.13477 72.2151 7.87039C72.4795 7.59499 72.7824 7.38018 73.1239 7.22596C73.4654 7.06072 73.8399 6.9781 74.2475 6.9781ZM80.04 6.9781C80.8001 6.9781 81.4501 7.14334 81.9898 7.47382C82.5406 7.80429 82.9592 8.27247 83.2456 8.87834C83.5431 9.4732 83.6918 10.1727 83.6918 10.9769V11.8526H77.6275C77.6496 12.8551 77.9029 13.6207 78.3876 14.1495C78.8834 14.6672 79.5718 14.9261 80.4531 14.9261C81.0149 14.9261 81.5106 14.8765 81.9403 14.7774C82.3809 14.6672 82.8326 14.513 83.2952 14.3147V15.587C82.8436 15.7853 82.3974 15.9285 81.9568 16.0166C81.5162 16.1158 80.9929 16.1654 80.387 16.1654C79.5498 16.1654 78.8062 15.9946 78.1563 15.6531C77.5174 15.3116 77.0162 14.8049 76.6526 14.1329C76.3001 13.4499 76.1239 12.6182 76.1239 11.6378C76.1239 10.6684 76.2836 9.83673 76.6031 9.14273C76.9335 8.44872 77.3907 7.91445 77.9745 7.53991C78.5694 7.16537 79.2579 6.9781 80.04 6.9781ZM80.0235 8.16782C79.3295 8.16782 78.7787 8.39364 78.3711 8.8453C77.9745 9.28593 77.7377 9.90282 77.6606 10.696H82.1716C82.1716 10.1892 82.0945 9.7486 81.9403 9.37406C81.786 8.99952 81.5492 8.7076 81.2297 8.4983C80.9213 8.27798 80.5192 8.16782 80.0235 8.16782ZM91.5024 16.0001H85.0251V15.0417L89.7839 8.26696H85.306V7.14334H91.3867V8.23391L86.694 14.8765H91.5024V16.0001Z" fill="white"/>
<path d="M2.08487 16.4212C0.917186 15.2756 0.333344 13.8656 0.333344 12.1911C0.333344 10.5167 0.917186 9.10669 2.08487 7.96103C3.25256 6.81538 4.69564 6.24255 6.41412 6.24255C7.68095 6.24255 8.79355 6.56752 9.75194 7.21746C10.7103 7.8674 11.3988 8.66054 11.8174 9.59689L9.63627 10.4396C9.34986 9.84475 8.92024 9.36005 8.34741 8.98551C7.7856 8.59996 7.14117 8.40718 6.41412 8.40718C5.38964 8.40718 4.52489 8.7707 3.81988 9.49775C3.12587 10.2248 2.77887 11.1226 2.77887 12.1911C2.77887 13.2597 3.12587 14.1575 3.81988 14.8845C4.52489 15.6116 5.38964 15.9751 6.41412 15.9751C7.14117 15.9751 7.7856 15.7878 8.34741 15.4133C8.92024 15.0277 9.34986 14.5375 9.63627 13.9427L11.8174 14.7854C11.3988 15.7217 10.7103 16.5149 9.75194 17.1648C8.79355 17.8148 7.68095 18.1397 6.41412 18.1397C4.69564 18.1397 3.25256 17.5669 2.08487 16.4212Z" fill="#FF462D"/>
<path d="M19.8886 5.0234C21.0563 6.16905 21.6401 7.57909 21.6401 9.2535C21.6401 10.9279 21.0563 12.338 19.8886 13.4836C18.7209 14.6293 17.2778 15.2021 15.5593 15.2021C14.2925 15.2021 13.1799 14.8771 12.2215 14.2272C11.2631 13.5772 10.5747 12.7841 10.1561 11.8477L12.3372 11.005C12.6236 11.5999 13.0532 12.0846 13.6261 12.4591C14.1879 12.8447 14.8323 13.0375 15.5593 13.0375C16.5838 13.0375 17.4486 12.6739 18.1536 11.9469C18.8476 11.2198 19.1946 10.322 19.1946 9.2535C19.1946 8.18496 18.8476 7.28716 18.1536 6.56011C17.4486 5.83306 16.5838 5.46954 15.5594 5.46954C14.8323 5.46954 14.1879 5.65681 13.6261 6.03135C13.0532 6.41691 12.6236 6.90711 12.3372 7.50197L10.1561 6.65926C10.5747 5.72291 11.2631 4.92976 12.2215 4.27982C13.1799 3.62988 14.2925 3.30492 15.5594 3.30492C17.2778 3.30492 18.7209 3.87774 19.8886 5.0234Z" fill="#FF462D"/>
</svg>
